<svg xmlns="http://www.w3.org/2000/svg" viewBox="0 0 640 640" version="1.1">
 <path stroke-width="0.64" d="m160 487.89c-6.99-1.11-14.96-5.83-18.92-11.21-5.54-7.53-5.08 1.26-5.08-96.2 0-97.458-0.46451-88.665 5.082-96.2 3.0252-4.1095 7.642-7.4628 13.478-9.7894l3.84-1.5309 128-0.18334c88.712-0.12707 129.28 0.0268 132.16 0.50135 7.8904 1.2987 15.65 6.2731 19.748 12.659 4.0866 6.3684 4.1382 6.7191 4.5318 30.771l0.35978 21.989 26.141-23.909c14.378-13.15 27.626-24.773 29.44-25.829 3.0675-1.7854 3.7474-1.92 9.6987-1.92 6.7735 0 8.3086 0.47508 12.96 4.0108l2.08 1.5811v171.72l-3.8201 3.3626c-5.4092 4.7614-9.4586 6.5081-15.106 6.5159-9.1331 0.0126-7.8739 0.9733-36.274-27.674l-25.44-25.662-0.004 20.111c-0.004 21.965-0.38385 25.948-2.9825 31.278-2.1026 4.3132-7.6644 9.9619-12.194 12.385-7.1098 3.8027-0.45017 3.6327-139.06 3.5497-69.872-0.0418-127.76-0.19051-128.64-0.33042zm31.899-226.15c-27.506-2.4974-51.681-18.299-63.145-41.274-5.5949-11.212-7.4366-19.776-7.0027-32.562 0.38976-11.485 1.8751-17.437 6.8833-27.583 7.5016-15.197 18.713-26.165 34.713-33.96 11.29-5.5 22.41-7.96 36.01-7.96 13.603 0 24.719 2.4568 36.013 7.9596 16 7.7954 27.211 18.763 34.713 33.96 5.0082 10.146 6.4936 16.098 6.8833 27.583 0.43353 12.774-1.432 21.481-7.0017 32.677-13.525 27.189-45.613 44.105-78.069 41.159zm20.941-29.407c22.263-5.6015 37.161-24.071 35.889-44.491-0.71092-11.411-4.8016-19.609-14.133-28.323-5.6092-5.2384-13.664-9.5776-21.795-11.741-7.1736-1.9086-19.637-1.9183-26.88-0.021-16.964 4.444-29.721 16.258-34.993 32.405-0.49021 1.5015-0.83671 5.6033-0.83797 9.92-0.002 5.9878 0.27462 8.1953 1.4824 11.84 5.4857 16.554 20.82 28.656 40.109 31.653 5.3994 0.83902 15.167 0.26566 21.159-1.242zm146.85 29.389c-21.756-2.1634-41.629-12.659-54.707-28.892-5.2707-6.5423-11.286-18.46-13.178-26.108-1.7306-6.9965-2.3424-19.978-1.2599-26.734 3.1178-19.46 15.065-37.568 31.985-48.479 13.903-8.9657 28.178-13.106 45.182-13.106 13.819 0 24.804 2.4769 36.451 8.2194 22.016 10.855 37.044 30.353 40.657 52.75 1.1194 6.939 0.49841 21.14-1.2033 27.518-9.3096 34.893-45.655 58.638-83.928 54.832zm21.474-29.389c21.254-5.3478 36.102-22.724 36.102-42.251 0-19.459-14.684-36.644-36.141-42.296-3.9475-1.0398-7.0253-1.3486-13.44-1.3486-10.113 0-15.714 1.2967-24.64 5.7052-5.073 2.5055-7.0448 3.9614-11.906 8.7909-6.7225 6.6791-10.281 12.906-12.133 21.231-4.654 20.919 9.6002 42.477 32.707 49.467 9.4804 2.8678 19.859 3.115 29.452 0.70149z"/>
</svg>
